<?xml version="1.0" encoding="iso-8859-1"?>
<!-- Generator: Adobe Illustrator 19.0.0, SVG Export Plug-In . SVG Version: 6.00 Build 0)  -->
<svg version="1.1" id="Capa_1" fill="#71945A" xmlns="http://www.w3.org/2000/svg" xmlns:xlink="http://www.w3.org/1999/xlink" x="0px" y="0px"
	 viewBox="0 0 511.999 511.999" style="enable-background:new 0 0 511.999 511.999;" xml:space="preserve">
<g>
	<g>
		<path d="M451.337,421.77l-20.014-5.363c-28.228-7.568-57.119,3.603-73.475,25.833v-31.542
			c33.557-1.816,64.846-15.809,88.704-39.817c25.424-25.583,39.426-59.534,39.426-95.601c0-4.142-3.357-7.5-7.5-7.5h-30.58
			c-4.143,0-7.5,3.358-7.5,7.5c0,4.143,3.357,7.5,7.5,7.5h22.852c-1.784,29.263-13.995,56.556-34.836,77.527
			c-13.751,13.837-30.28,23.926-48.331,29.76c6.401-7.863,12.257-17.848,17.386-29.811c13.14-30.645,20.376-71.225,20.376-114.266
			c0-4.143-3.357-7.5-7.5-7.5H282.851c-4.142,0-7.5,3.357-7.5,7.5c0,7.35,0.23,14.614,0.647,21.79h-53.779
			c-4.143,0-7.5,3.358-7.5,7.5c0,72.269,56.819,131.513,128.13,135.419v13.025h-17.071c-4.143,0-7.5,3.357-7.5,7.5
			s3.357,7.5,7.5,7.5h17.071v42.133c0,0.008,0,0.017,0,0.025v23.617c0,4.143,3.357,7.5,7.5,7.5s7.5-3.357,7.5-7.5v-13.756
			l10.572,2.833c5.961,1.598,11.947,2.359,17.844,2.359c30.464,0,58.42-20.361,66.671-51.154l3.704-13.826
			C457.712,426.955,455.338,422.842,451.337,421.77z M350.348,395.905c-17.919,0-36.178-23.092-47.651-60.264
			c-1.222-3.959-5.427-6.175-9.378-4.954c-3.958,1.221-6.176,5.42-4.954,9.378c6.506,21.079,14.919,37.948,24.644,49.93
			c-46.023-15.015-79.967-57.008-83.06-107.215h47.235c0.957,9.525,2.27,18.855,3.979,27.914c0.767,4.069,4.688,6.75,8.76,5.98
			c4.07-0.768,6.748-4.69,5.98-8.76c-2.025-10.737-3.499-21.867-4.418-33.292c-0.005-0.059-0.009-0.117-0.016-0.175
			c-0.55-6.886-0.898-13.878-1.042-20.958h119.842c-0.777,38.224-7.484,73.798-19.086,100.855
			C379.858,380.757,364.974,395.905,350.348,395.905z M438.447,440.899c-7.707,28.764-37.387,45.892-66.144,38.189l-1.472-0.395
			l41.803-21.927c3.669-1.924,5.082-6.457,3.158-10.125c-1.924-3.668-6.458-5.083-10.125-3.158l-43.551,22.844
			c8.811-27.088,37.487-42.888,65.323-35.431l12.77,3.422L438.447,440.899z"/>
	</g>
</g>
<g>
	<g>
		<path d="M274.327,88.32c-11.861,0-23.219,4.559-31.788,12.617c-1.635-0.203-3.297-0.32-4.986-0.32
			c-19.462,0-35.74,13.884-39.455,32.267L76.077,2.378c-1.522-1.627-3.706-2.499-5.907-2.365c-2.223,0.127-4.274,1.235-5.599,3.024
			C49.142,23.875,40.988,48.624,40.988,74.61c0,23.986,7.037,47.154,20.351,66.999c2.308,3.439,6.969,4.357,10.407,2.05
			c3.439-2.309,4.357-6.968,2.05-10.407c-11.65-17.364-17.809-37.643-17.809-58.642c0-19.695,5.35-38.578,15.548-55.126
			l111.712,119.48L73.139,156.342c-0.135,0.021-0.267,0.046-0.398,0.073c-25.381,4.176-44.492,24.942-46.539,50.64
			c-1.184,14.862,3.489,29.298,13.159,40.645c9.672,11.35,23.186,18.253,38.046,19.436c1.534,0.124,3.062,0.185,4.581,0.185
			c10.927,0,21.44-3.171,30.667-9.284c0.106-0.064,0.211-0.13,0.314-0.2l39.948-26.832c0.065,1.253,0.147,2.514,0.261,3.786
			c1.218,13.58,12.404,23.82,26.02,23.82c0.815,0,1.582-0.032,2.36-0.101c6.957-0.623,13.255-3.921,17.733-9.283
			c4.479-5.361,6.601-12.143,5.977-19.096c-0.876-9.786,1.048-28.968,22.696-50.172c3.075,0.755,6.285,1.163,9.59,1.163
			c22.195,0,40.253-18.058,40.253-40.253c0-14.138-7.333-26.588-18.389-33.77c4.535-2.448,9.648-3.779,14.909-3.779
			c17.314,0,31.401,14.087,31.401,31.401c0,4.143,3.357,7.5,7.5,7.5s7.5-3.357,7.5-7.5C320.728,109.135,299.913,88.32,274.327,88.32
			z M153.703,212.406l-48.803,32.78c-0.1,0.061-0.198,0.124-0.296,0.189c-7.736,5.198-16.723,7.554-26,6.808
			c-10.871-0.866-20.754-5.914-27.826-14.213c-7.072-8.299-10.489-18.855-9.623-29.725c1.504-18.891,15.616-34.138,34.318-37.077
			c0.128-0.02,0.255-0.044,0.381-0.07l104.395-16.476C168.67,168.783,157.008,188.412,153.703,212.406z M190.329,231.47
			c0.266,2.963-0.64,5.854-2.549,8.141c-1.911,2.287-4.596,3.692-7.544,3.957c-0.323,0.028-0.662,0.042-1.038,0.042
			c-5.797,0-10.561-4.368-11.08-10.16c-3.121-34.815,16.027-61.942,31-77.513l2.106,2.252c2.851,5.957,7.124,11.107,12.377,15.009
			C191.187,197.243,189.27,219.647,190.329,231.47z M262.807,140.87c0,13.925-11.328,25.253-25.253,25.253
			s-25.253-11.328-25.253-25.253c0-13.925,11.328-25.253,25.253-25.253S262.807,126.945,262.807,140.87z"/>
	</g>
</g>
<g>
	<g>
		<path d="M78.728,176.265c-13.082,0-23.725,10.643-23.725,23.725c0,13.082,10.643,23.725,23.725,23.725
			c13.082,0,23.725-10.643,23.725-23.725C102.453,186.908,91.81,176.265,78.728,176.265z M78.728,208.715
			c-4.811,0-8.725-3.914-8.725-8.725c0-4.811,3.914-8.725,8.725-8.725c4.811,0,8.725,3.914,8.725,8.725
			C87.453,204.801,83.539,208.715,78.728,208.715z"/>
	</g>
</g>
<g>
</g>
<g>
</g>
<g>
</g>
<g>
</g>
<g>
</g>
<g>
</g>
<g>
</g>
<g>
</g>
<g>
</g>
<g>
</g>
<g>
</g>
<g>
</g>
<g>
</g>
<g>
</g>
<g>
</g>
</svg>
