<?xml version="1.0" encoding="iso-8859-1"?>
<!-- Generator: Adobe Illustrator 18.0.0, SVG Export Plug-In . SVG Version: 6.00 Build 0)  -->
<!DOCTYPE svg PUBLIC "-//W3C//DTD SVG 1.1//EN" "http://www.w3.org/Graphics/SVG/1.1/DTD/svg11.dtd">
<svg version="1.1" id="Capa_1" fill="#71945A" xmlns="http://www.w3.org/2000/svg" xmlns:xlink="http://www.w3.org/1999/xlink" x="0px" y="0px"
	 viewBox="0 0 452.382 452.382" style="enable-background:new 0 0 452.382 452.382;" xml:space="preserve">
<g>
	<path d="M333.332,108.618c-0.399,0.074-41.054,7.231-142.747-6.033c-16.57-2.162-55.38-8.563-57.869-21.293
		c-1.384-7.08,10.167-15.4,14.323-17.756c1.921-1.086,2.599-3.524,1.515-5.447c-1.084-1.924-3.524-2.605-5.449-1.519
		c-2.153,1.214-20.958,12.27-18.243,26.241c2.585,13.303,23.745,22.366,64.688,27.707c49.345,6.436,84.364,8.144,107.644,8.144
		c25.284,0,36.721-2.016,37.595-2.178c2.172-0.402,3.607-2.489,3.205-4.662C337.592,109.651,335.507,108.218,333.332,108.618z"/>
	<path d="M448.031,97.012C443.499,47.16,351.096,31.4,334.284,28.943c-6.472-7.529-31.299-30.215-94.843-28.887
		c-15.96,0.332-58.347,6.168-102.613,18.104C98.7,28.44,47.856,46.352,22.158,73.308c-5.356,5.618-7.769,13.255-6.62,20.953
		c1.151,7.718,5.704,14.337,12.49,18.16c12.218,6.883,24.946,15.324,37.256,23.486c17.322,11.486,32.281,21.405,42.044,24.378
		c5.556,1.692,10.738,2.497,15.694,2.701c6.158,6.403,28.611,31.171,42.751,65.404c-15.238-7.269-42.079-15.245-82.44-10.9
		c-19.245,2.072-35.712,7.119-48.945,14.998c-11.313,6.736-20.06,15.515-25.295,25.387c-6.056,11.42-6.959,23.343-2.416,31.896
		c4.246,7.993,15.513,13.175,35.244,15.891c7.705,9.337,45.262,57.826,46.557,116.926c0.045,2.043,1.126,3.923,2.87,4.988
		c9.179,5.609,18.056,7.58,26.005,7.58c18.234,0,31.57-10.376,32.36-11.005c1.965-1.564,2.747-4.19,1.961-6.575
		c-0.221-0.672-21.411-66.564,8.861-107.249c5.549-0.401,10.641-1.072,15.086-2.089c-2.672,19.798-5.036,35.617-6.976,48.598
		c-5.31,35.529-7.733,51.745-5.551,75.745c0.146,1.603,0.93,3.081,2.176,4.1c14.842,12.144,34.285,15.704,51.993,15.704
		c24.207,0,45.168-6.657,46.656-7.141c1.707-0.555,3.075-1.845,3.73-3.516c0.339-0.864,0.464-1.782,0.389-2.685
		c16.291-2.806,22.152-7.481,23.679-9.009c1.125-1.125,1.757-2.651,1.757-4.243c0-41.463,12.574-74.658,16.926-84.902
		c17.186-0.575,28.708-5.018,35.138-13.543c5.673-7.521,6.751-17.626,3.206-30.036c-4.415-15.451-21.508-25.948-50.808-31.202
		c-12.68-2.274-24.806-3.046-32.435-3.301c12.797-42.665,33.033-80.102,69.085-103.907c13.041-1.675,23.893-3.517,30.933-4.948
		c8.198-1.667,16.094-5.359,23.317-9.494c19.946,14.387,33.439,12.504,41.376,8.187C444.069,145.103,450.563,124.826,448.031,97.012
		z M17.275,284.14c-1.969-3.706-2.516-11.335,2.42-20.644c13.748-25.926,49.983-32.467,64.924-34.076
		c31.977-3.442,54.378,1.524,67.54,6.297c10.744,3.896,17.233,8.293,19.786,10.229c4.439,15.318,6.764,31.999,5.253,49.418
		c-15.846,5.76-52.965,3.011-73.484,1.49c-6.782-0.502-12.139-0.899-15.237-0.899l-2.211,0.005
		c-7.863,0.023-24.221,0.078-39.416-1.733C22.86,291.366,18.147,285.783,17.275,284.14z M100.362,418.885
		c-0.819-18.82-4.907-36.43-10.436-52.117c5.426,1.153,12.551,2.223,20.325,2.223c7.03,0,14.587-0.885,21.886-3.365
		c-0.307,22.758,4.423,42.713,6.824,51.314C132.454,420.793,117.193,427.536,100.362,418.885z M132.505,356.938
		c-17.05,7.104-37.394,3.051-46.014,0.751c-8.989-22.211-20.38-39.819-28.143-50.448c4.686,0.292,9.707,0.494,15.075,0.608
		l2.807,7.508c0.601,1.607,2.126,2.6,3.747,2.6c0.465,0,0.938-0.082,1.4-0.254c2.069-0.773,3.12-3.078,2.346-5.147l-1.72-4.6
		c0.782,0.003,1.555,0.009,2.35,0.009c0.646,0,1.296-0.001,1.951-0.003l2.172-0.005c1.551,0,4.051,0.138,7.11,0.345l1.406,15.516
		c0.188,2.078,1.933,3.64,3.979,3.64c0.121,0,0.243-0.006,0.365-0.017c2.2-0.2,3.822-2.145,3.623-4.345l-1.288-14.211
		c9.057,0.667,18.361,1.279,27.408,1.629l-3.355,9.053c-0.768,2.072,0.29,4.373,2.361,5.141c0.458,0.169,0.928,0.25,1.39,0.25
		c1.625,0,3.153-0.998,3.751-2.611l4.294-11.587c1.963,0.036,3.911,0.059,5.826,0.059c0.167,0,0.33-0.003,0.497-0.003
		C137.36,325.295,133.624,341.495,132.505,356.938z M174.826,428.906c-1.647-21.225,0.723-37.083,5.687-70.299
		c2.186-14.624,4.905-32.823,8.003-56.28c0.463-3.507,0.776-7.045,0.956-10.607c8.892,3.264,24.601,7.947,41.558,7.947
		c4.354,0,8.791-0.315,13.215-1.037c-3.828,18.748-6.655,37.301-9.121,54.56c-4.486,31.407,10.984,67.697,18.214,82.511
		C237.673,439.53,198.841,446.484,174.826,428.906z M260.143,338.42l0,11.368c0,2.209,1.791,4,4,4c2.209,0,4-1.791,4-4l0-11.173
		c4.763,0.223,9.737,0.605,14.679,0.997l-2.481,7.602c-0.685,2.1,0.461,4.358,2.562,5.044c0.413,0.134,0.831,0.198,1.242,0.198
		c1.684,0,3.25-1.072,3.802-2.76l3.083-9.448c2.204,0.162,4.361,0.306,6.467,0.423c-3.155,7.993-7.751,21.304-11.216,38.298
		c-16.561,2.724-32.513-3.268-39.632-6.535c-0.497-5.952-0.453-11.875,0.358-17.547c0.749-5.245,1.522-10.497,2.329-15.744
		C252.536,338.635,256.2,338.431,260.143,338.42z M262.845,427.681c-4.727-10.139-11.926-27.666-15.02-46.012
		c7.125,2.827,17.782,6.015,29.642,6.015c2.38,0,4.81-0.133,7.268-0.419c-1.804,10.739-3.063,22.674-3.239,35.461
		C277.784,424.666,270.109,426.576,262.845,427.681z M337.207,300.603c2.456,8.595,2.036,15.16-1.248,19.513
		c-4.362,5.783-14.557,8.839-29.483,8.839c-6.279,0-13.605-0.583-21.361-1.199c-11.74-0.933-23.778-1.887-33.814-0.932
		c2.943-17.717,6.4-35.254,10.855-52.124C283.833,275.071,331.344,280.084,337.207,300.603z M260.502,239.917
		c-6.051,16.225-10.707,33.236-14.459,50.223c-22.404,4.779-46.764-3.194-56.401-6.94c-0.163-13.684-2.359-27.684-6.515-41.757
		c-0.083-0.454-0.204-0.9-0.391-1.328c-4.435-14.586-10.977-29.244-19.568-43.704c-9-15.148-18.363-26.994-24.888-34.515
		c4.987-0.838,9.891-2.032,14.888-3.258c0.337-0.083,0.675-0.166,1.013-0.248l9.737,21.79c0.664,1.487,2.125,2.369,3.654,2.369
		c0.545,0,1.1-0.112,1.629-0.349c2.017-0.901,2.921-3.267,2.02-5.284l-9.113-20.395c4.761-1.048,9.69-1.945,14.976-2.442
		l4.564,15.037c0.524,1.727,2.11,2.839,3.826,2.839c0.385,0,0.776-0.056,1.163-0.173c2.114-0.642,3.308-2.875,2.666-4.989
		l-3.984-13.126c4.859-0.028,10.047,0.325,15.688,1.222l0.972,22.736c0.092,2.149,1.863,3.829,3.994,3.829
		c0.058,0,0.116-0.001,0.174-0.003c2.207-0.095,3.92-1.96,3.826-4.167l-0.889-20.794c1.133,0.266,2.278,0.546,3.447,0.855
		c3.929,1.04,8.057,1.919,12.331,2.663l-1.364,13.03c-0.23,2.197,1.364,4.165,3.562,4.395c0.142,0.015,0.282,0.022,0.421,0.022
		c2.022,0,3.758-1.528,3.973-3.584l1.325-12.659c5.065,0.661,10.294,1.149,15.619,1.493l-2.86,16.047
		c-0.388,2.175,1.061,4.252,3.236,4.64c0.237,0.042,0.473,0.063,0.707,0.063c1.901,0,3.588-1.361,3.933-3.299l3.038-17.041
		c4.366,0.164,8.773,0.246,13.192,0.245c0.903,0,1.806-0.006,2.709-0.013l-4.026,8.969c-0.904,2.015-0.004,4.382,2.012,5.287
		c0.532,0.239,1.088,0.352,1.635,0.352c1.527,0,2.986-0.879,3.652-2.363l5.565-12.399c10.397-0.291,20.677-0.945,30.405-1.805
		C289.822,180.512,273.006,206.391,260.502,239.917z M424.478,142.1c-5.978,3.253-14.495,1.617-24.444-4.572
		c0.688-0.447,1.367-0.889,2.034-1.325c4.014-2.618,9.291-6.059,12.02-7.146c1.762,1.551,4.36,1.992,6.621,0.879
		c3.393-1.671,4.145-6.067,2.061-9.224c-1.161-1.759-2.841-3.019-4.85-3.609c-5.883-1.727-12.456,2.559-22.407,9.048
		c-2.896,1.889-6.011,3.92-9.267,5.894c-0.078,0.045-0.155,0.091-0.231,0.14c-7.229,4.367-15.141,8.428-22.887,10.003
		c-0.91,0.186-92.571,18.104-147.528,3.556c-11.242-2.976-21.022-4.085-29.78-4.085c-13.824,0-25.096,2.767-35.514,5.324
		c-13.507,3.316-25.171,6.18-39.483,1.822c-8.087-2.462-23.058-12.39-38.907-22.899c-12.488-8.281-25.401-16.843-37.998-23.94
		c-3.537-1.993-5.911-5.447-6.512-9.476c-0.599-4.009,0.654-7.982,3.437-10.901c13.126-13.769,42.711-33.94,109.108-51.842
		c43.292-11.672,84.386-17.373,99.739-17.693c47.835-0.995,71.284,12.435,80.851,20.294c-15.491,1.108-43.868,7.984-64.757,40.966
		c-1.182,1.866-0.627,4.337,1.239,5.52c0.664,0.42,1.404,0.621,2.136,0.621c1.325,0,2.622-0.658,3.383-1.86
		c0.435-0.687,0.873-1.361,1.315-2.023c17.447-26.157,49.25-38.804,80.105-32.757c10.337,2.026,24.835,5.372,39.086,10.399
		c23.07,8.137,50.998,22.529,53.03,44.887C438.096,120.249,433.651,137.11,424.478,142.1z"/>
</g>
<g>
</g>
<g>
</g>
<g>
</g>
<g>
</g>
<g>
</g>
<g>
</g>
<g>
</g>
<g>
</g>
<g>
</g>
<g>
</g>
<g>
</g>
<g>
</g>
<g>
</g>
<g>
</g>
<g>
</g>
</svg>
